<?xml version="1.0" standalone="no"?><!DOCTYPE svg PUBLIC "-//W3C//DTD SVG 1.1//EN" "http://www.w3.org/Graphics/SVG/1.1/DTD/svg11.dtd"><svg width="200" height="200" viewBox="0 0 200 200" version="1.1" xmlns="http://www.w3.org/2000/svg" xmlns:xlink="http://www.w3.org/1999/xlink"><defs><style type="text/css"><![CDATA[
@font-face { font-family: ifont; src: url(http://at.alicdn.com/t/font_1442373896_4754455.eot?#iefix) format(embedded-opentype), url(http://at.alicdn.com/t/font_1442373896_4754455.woff) format(woff), url(http://at.alicdn.com/t/font_1442373896_4754455.ttf) format(truetype), url(http://at.alicdn.com/t/font_1442373896_4754455.svg#ifont) format(svg); }

]]></style></defs><g class="transform-group"><g transform="scale(0.1953125, 0.1953125)"><path d="M960.075085 774.859733l0.220011-90.958618c0 0-60.037375-11.878538-61.027935-15.909341-1.12052-4.493338-2.340301-8.842389-3.654226-13.0799 7.017834-13.039991 40.831964-41.679261 40.831964-41.679261l-67.691705-90.188068c0 0-43.889603 36.132942-54.804187 41.315988-5.071506-1.955538-10.434653-3.735068-16.080234-5.367241-5.901407-1.461281-22.191418-59.305711-22.191418-59.305711l-91.133603-0.735757c0 0-9.860579 56.014758-24.62177 59.817364-4.91494 1.443885-9.860579 3.318582-14.797008 5.564739-10.93198-5.322216-54.785767-42.010813-54.785767-42.010813l-67.686588 91.631954c0 0 33.93488 34.209126 36.21276 45.647643-1.443885 3.601015-2.802836 7.272637-4.049223 11.012821-14.600533 5.084808-56.018851 13.286608-56.018851 13.286608l0.174985 90.958618c0 0 48.212048 10.039657 57.364499 18.10638 1.914606 5.228071 4.066619 10.335393 6.421246 15.335267-11.120268 13.900591-40.822754 37.087687-40.822754 37.087687l69.852928 90.932012c0 0 54.826699-35.487236 63.857377-37.526685 4.480035 1.968841 9.039887 3.770883 13.685697 5.376451 8.281617 2.88777 14.08888 55.82647 14.08888 55.82647l91.048669 0.206708c0 0 3.057639-51.961442 9.721409-54.028521 6.622838-2.049682 13.0799-4.484128 19.352767-7.255241 7.645121 2.986007 43.612287 38.84061 43.612287 38.84061l90.013083-91.654466c0 0-33.410947-23.057135-42.629913-35.495422 2.511193-5.16565 4.802376-10.457166 6.846942-15.882736C904.487046 786.441513 960.075085 774.859733 960.075085 774.859733L960.075085 774.859733 960.075085 774.859733zM728.46917 843.788615c-63.413262 0-114.863051-51.40067-114.863051-114.823142 0-63.418378 51.449789-114.827235 114.863051-114.827235s114.858958 51.40988 114.858958 114.827235C843.328128 792.387945 791.883455 843.788615 728.46917 843.788615L728.46917 843.788615 728.46917 843.788615zM436.279435 494.583329c104.456027 0 210.813357-102.725616 210.813357-211.449853 0-108.693538-101.223403-219.337497-205.732641-219.337497-104.411001 0-208.28886 113.325022-208.28886 221.982744C233.07129 394.513192 331.815221 494.583329 436.279435 494.583329L436.279435 494.583329 436.279435 494.583329zM482.232023 539.854395c0 0-134.988414-14.478759-233.789651 42.818201C149.637042 639.97058 90.487897 730.121809 64.341401 811.624055c-13.098319 40.966017 178.227194 61.794391 368.517121 61.148685 63.149249-0.224104 20.160155-52.033074 20.160155-117.844965C453.018677 605.048209 580.975954 539.854395 482.232023 539.854395L482.232023 539.854395 482.232023 539.854395zM482.232023 539.854395" fill="#ffffff"></path></g></g></svg>