<?xml version="1.0" standalone="no"?><!DOCTYPE svg PUBLIC "-//W3C//DTD SVG 1.1//EN" "http://www.w3.org/Graphics/SVG/1.1/DTD/svg11.dtd"><svg width="200" height="200" viewBox="0 0 200 200" version="1.1" xmlns="http://www.w3.org/2000/svg" xmlns:xlink="http://www.w3.org/1999/xlink"><defs><style type="text/css"><![CDATA[
@font-face { font-family: ifont; src: url(http://at.alicdn.com/t/font_1442373896_4754455.eot?#iefix) format(embedded-opentype), url(http://at.alicdn.com/t/font_1442373896_4754455.woff) format(woff), url(http://at.alicdn.com/t/font_1442373896_4754455.ttf) format(truetype), url(http://at.alicdn.com/t/font_1442373896_4754455.svg#ifont) format(svg); }

]]></style></defs><g class="transform-group"><g transform="scale(0.1953125, 0.1953125)"><path d="M855.961 247.5l0-71.203c0-16.771-13.466-30.375-30.03-30.375l-109.31 0c2.586 4.486 4.168 9.626 4.168 15.188l0 136.687c0 16.771-13.466 30.375-30.064 30.375L300.216 328.172c-16.582 0-30.047-13.604-30.047-30.375L270.169 161.109c0-5.562 1.602-10.702 4.167-15.188L165.045 145.921c-16.599 0-30.047 13.604-30.047 30.375l0 792.905c0 16.771 13.448 30.375 30.047 30.375l660.885 0c16.564 0 30.03-13.604 30.03-30.375L855.961 518 678.5 688.241 495.75 738.75 538 568 855.961 247.5zM690.723 282.609l0-75.938c0 0-3.271-43.66-45.047-45.562-29.135-1.326-90.125 0-90.125 0L555.551 54.798c0 0-14.257-30.375-60.068-30.375-44.289 0-60.08 30.375-60.08 30.375L435.403 161.11l-75.109 0c0 0-59.131-2.247-60.079 45.562-0.396 20.414 0 75.938 0 75.938L690.723 282.609 690.723 282.609zM495.484 54.798c16.581 0 30.039 13.603 30.039 30.375 0 16.78-13.458 30.375-30.039 30.375-16.6 0-30.049-13.595-30.049-30.375C465.434 68.4 478.885 54.798 495.484 54.798zM977.086 323.146 912.679 262.4c0 0-17.752-24.288-38.533-3.416l-47.621 49.833L931 407l46.78-48.599C977.781 358.401 997.137 343.285 977.086 323.146zM569.403 565.404l104.835 95.304 242.763-237.183-104.985-101.01L569.403 565.404zM515.167 717.833l62-18.006L529.521 659.5 515.167 717.833zM536.25 646.5l55.128 48.168 68.06-25.109L558.5 578.5 536.25 646.5z" fill="#ffffff"></path></g></g></svg>