<?xml version="1.0" encoding="utf-8"?>
<!-- Generator: Adobe Illustrator 19.0.0, SVG Export Plug-In . SVG Version: 6.00 Build 0)  -->
<svg version="1.1" id="图层_1" xmlns="http://www.w3.org/2000/svg" xmlns:xlink="http://www.w3.org/1999/xlink" x="0px" y="0px"
	 viewBox="0 0 595.3 841.9" style="enable-background:new 0 0 595.3 841.9;" xml:space="preserve">
<style type="text/css">
	.st0{fill:#FFFFFF;}
</style>
<g>
	<path class="st0" d="M572.9,464.2c-9.9-23.1-34.9-39-56.9-51.3c-11-6.1-22.2-11.2-36.8-17.3c-11.9-4.9-31.5-9.1-35.7-18.4
		c-2.6-5.8-1.8-19.5,1.1-26.2c2.1-4.8,6.7-8.5,10-12.8c22.4-28.9,41-73.7,34.6-127.1c-6-50.1-41.4-89.1-101.4-85.3
		c-42.1,2.7-66.1,25.5-79.7,57.4c32.6,29.4,56.7,71.6,51.8,133.8c-3.8,49.5-23,87.8-45.2,118.7c-3.1,4.3-7.3,8.3-8.9,13.4
		c32.5,13.1,63.9,27.2,89.5,47.2l49.8-48.6l47.9,46.7L439,547.9c0.8,1.6,1.6,3.3,2.4,5c47.1-4.9,103.1-7.5,126.5-36.2
		C576.8,505.7,579.2,478.9,572.9,464.2z M518.3,470L501,487l-47.5-47.1l17.3-17c5.3-5.3,13.6-6,18.1-1.5l31.3,30.5
		C524.4,456.4,523.6,464.7,518.3,470z"/>
	<path class="st0" d="M379.2,606.8c-0.4,0.4-1.9,1.9-4.1,2.3c-0.4,0-0.4,0-0.8,0.4l-59.6,18.5c-1.5,0.4-3.4,0.4-4.5-0.8
		c-1.1-1.1-1.5-2.6-0.8-4.5l18.9-58.4c0-0.4,0-0.4,0.4-0.8c0.4-1.9,1.9-4.1,2.6-4.5l21.9-20l11.3-12.4l0.4-0.4
		c-21.1-15.4-46.7-27.6-72.4-37.4c-7.7-2.9-17.9-5.2-21.7-9.5c-7.9-8.9-12.7-30.3-6.1-47.4c1.9-5,7.4-9.2,11.1-13.9
		c11-13.9,20-28.5,27.9-46.8c9.2-21.4,18-50.3,13.9-84.7c-6.5-54.8-44-94.2-105.3-94.2c-62,0-98.3,39.6-104.2,95.3
		c-5.9,55.8,17.6,102.5,41.2,132.1c3.9,4.8,8.6,8.7,10.6,13.9c6.7,17.8-2,40.2-11.7,47.4c-4.7,3.5-12.3,5.3-18.4,7.8
		c-18.3,7.5-35.2,15.8-51.8,25.6c-20.9,12.4-42.7,26.6-54.1,49c-2.3,4.6-4,9.5-5,15.6v20.6c2,11.1,4.8,16.2,9.5,21.7
		c15.8,19,49.1,27.8,80.3,32.9c63.7,10.4,150.3,9.8,211.3-1.1c34.9-6.3,75.3-16.1,83.6-46.3c1.9-7,1.8-17.9,1.4-25.3L379.2,606.8z"
		/>
</g>
</svg>
