<?xml version="1.0" standalone="no"?><!DOCTYPE svg PUBLIC "-//W3C//DTD SVG 1.1//EN" "http://www.w3.org/Graphics/SVG/1.1/DTD/svg11.dtd"><svg width="200" height="200" viewBox="0 0 200 200" version="1.1" xmlns="http://www.w3.org/2000/svg" xmlns:xlink="http://www.w3.org/1999/xlink"><defs><style type="text/css"><![CDATA[
@font-face { font-family: ifont; src: url(http://at.alicdn.com/t/font_1442373896_4754455.eot?#iefix) format(embedded-opentype), url(http://at.alicdn.com/t/font_1442373896_4754455.woff) format(woff), url(http://at.alicdn.com/t/font_1442373896_4754455.ttf) format(truetype), url(http://at.alicdn.com/t/font_1442373896_4754455.svg#ifont) format(svg); }

]]></style></defs><g class="transform-group"><g transform="scale(0.1953125, 0.1953125)"><path d="M354.820168 709.792808c0-19.357883-15.745612-35.07075-35.161824-35.07075l-93.715405 0c-19.387559 0-35.132148 15.715937-35.132148 35.07075 0 19.354813 15.745612 35.07075 35.132148 35.07075l93.715405 0C339.077625 744.864582 354.820168 729.150692 354.820168 709.792808L354.820168 709.792808 354.820168 709.792808zM225.937822 347.311147l93.714382 0c19.422352 0 35.167964-15.712867 35.167964-35.074843 0-19.387559-15.748682-35.06768-35.167964-35.06768l-93.714382 0c-19.383466 0-35.130102 15.684214-35.130102 35.06768C190.80772 331.594187 206.553333 347.311147 225.937822 347.311147L225.937822 347.311147 225.937822 347.311147zM190.81079 511.019673c0 19.387559 15.745612 35.068703 35.132148 35.068703l93.715405 0c19.419282 0 35.161824-15.684214 35.161824-35.068703 0-19.389606-15.745612-35.103496-35.161824-35.103496l-93.715405 0C206.556403 475.916177 190.81079 491.630067 190.81079 511.019673L190.81079 511.019673 190.81079 511.019673zM830.031287 815.000965 830.031287 206.989261c0-19.370163-21.731954-35.06768-48.482201-35.06768l-36.163641 0-84.142375 0-15.959483-0.00307L296.238958 171.918511c-19.419282 0-35.130102 15.700587-35.130102 35.06768l0 35.074843 58.546418 0c38.838563 0 70.298066 31.423687 70.298066 70.171176 0 38.745443-31.455409 70.172199-70.298066 70.172199l-58.546418 0 0 58.461483 58.546418 0c38.838563 0 70.298066 31.398104 70.298066 70.143547 0 38.747489-31.455409 70.142523-70.298066 70.142523l-58.546418 0 0 58.461483 58.546418 0c38.838563 0 70.298066 31.429827 70.298066 70.178339 0 38.742373-31.455409 70.169129-70.298066 70.169129l-58.546418 0 0 35.039028c0 19.390629 15.712867 35.106566 35.130102 35.106566l365.007181 0 12.065803 0 108.238167 0 0-0.00307C808.299333 850.104461 830.031287 834.387501 830.031287 815.000965L830.031287 815.000965 830.031287 815.000965zM706.309474 462.476073l0 48.598858-71.136154 0 0 52.016701 71.139224 0 0 42.236963-71.139224 0 0 78.293157L570.906621 683.621752l0-78.293157-73.560366 0 0-42.236963 73.560366 0 0-52.016701-73.560366 0L497.346255 462.476073l59.211567 0-72.254627-125.513622 61.947887 0 58.335616 113.793696 60.292178-113.793696 58.313104 0L648.713708 462.476073 706.309474 462.476073 706.309474 462.476073 706.309474 462.476073zM781.549086 850.107531l43.288922 0 0 0.00307-43.288922 0L781.549086 850.107531 781.549086 850.107531 781.549086 850.107531zM781.549086 850.107531" fill="#ffffff"></path></g></g></svg>