<?xml version="1.0" standalone="no"?><!DOCTYPE svg PUBLIC "-//W3C//DTD SVG 1.1//EN" "http://www.w3.org/Graphics/SVG/1.1/DTD/svg11.dtd"><svg width="200" height="200" viewBox="0 0 200 200" version="1.1" xmlns="http://www.w3.org/2000/svg" xmlns:xlink="http://www.w3.org/1999/xlink"><defs><style type="text/css"><![CDATA[
@font-face { font-family: ifont; src: url(http://at.alicdn.com/t/font_1442373896_4754455.eot?#iefix) format(embedded-opentype), url(http://at.alicdn.com/t/font_1442373896_4754455.woff) format(woff), url(http://at.alicdn.com/t/font_1442373896_4754455.ttf) format(truetype), url(http://at.alicdn.com/t/font_1442373896_4754455.svg#ifont) format(svg); }

]]></style></defs><g class="transform-group"><g transform="scale(0.1953125, 0.1953125)"><path d="M533.632 300.8c54.784 0 99.072-45.696 99.072-102.144 0-31.744-14.08-60.032-36.096-78.848 1.92 6.4 3.2 13.056 3.2 20.224 0 38.528-30.336 69.76-67.712 69.76-37.376 0-67.712-31.232-67.712-69.76 0-5.632 0.768-11.008 2.048-16.256-19.584 18.688-32 45.312-32 75.008C434.56 255.104 478.976 300.8 533.632 300.8L533.632 300.8zM530.432 170.624c36.48 0 66.048-30.464 66.048-68.096 0-37.632-29.568-68.096-66.048-68.096-36.48 0-66.048 30.464-66.048 68.096C464.512 140.16 493.952 170.624 530.432 170.624L530.432 170.624zM64 780.928l159.488 63.616c-12.928-26.496-64.384-427.136-64.384-427.136L64 780.928 64 780.928zM712.448 990.592l10.24-156.544-357.76 37.12L712.448 990.592 712.448 990.592zM820.608 128.384l-173.44 26.368c10.496 19.328 16.384 41.472 16.384 65.152 0 73.984-58.112 134.016-129.92 134.016-71.808 0-129.92-60.032-129.92-134.016 0-9.856 1.152-19.328 3.072-28.544l-214.016 32.512c7.68 206.848 100.352 618.112 100.352 618.112l666.496-116.736C913.152 677.504 820.608 128.384 820.608 128.384L820.608 128.384zM318.592 455.296l283.648-41.984 8.448 31.616-283.52 42.112L318.592 455.296 318.592 455.296zM379.392 694.528l-10.24-35.968 349.056-51.2 10.368 35.968L379.392 694.528 379.392 694.528zM358.272 590.848l-13.824-35.712 449.536-60.928 13.824 35.712L358.272 590.848 358.272 590.848zM358.272 590.848" fill="#ffffff"></path></g></g></svg>