<?xml version="1.0" standalone="no"?><!DOCTYPE svg PUBLIC "-//W3C//DTD SVG 1.1//EN" "http://www.w3.org/Graphics/SVG/1.1/DTD/svg11.dtd"><svg width="200" height="200" viewBox="0 0 200 200" version="1.1" xmlns="http://www.w3.org/2000/svg" xmlns:xlink="http://www.w3.org/1999/xlink"><defs><style type="text/css"><![CDATA[
@font-face { font-family: ifont; src: url(http://at.alicdn.com/t/font_1442373896_4754455.eot?#iefix) format(embedded-opentype), url(http://at.alicdn.com/t/font_1442373896_4754455.woff) format(woff), url(http://at.alicdn.com/t/font_1442373896_4754455.ttf) format(truetype), url(http://at.alicdn.com/t/font_1442373896_4754455.svg#ifont) format(svg); }

]]></style></defs><g class="transform-group"><g transform="scale(0.1953125, 0.1953125)"><path d="M1024 341.339l-2.867 0c1.354 9.37 2.867 18.699 2.867 28.444 0 109.966-89.145 199.111-199.111 199.111-68.545 0-128.961-34.662-164.779-87.387-29.269 51.917-84.264 87.387-148.11 87.387s-118.841-35.47-148.11-87.387c-35.817 52.725-96.233 87.387-164.779 87.387C89.145 568.895 0 479.75 0 369.783c0-9.745 1.513-19.075 2.867-28.444L0 341.339l3.59-7.185c6.844-37.729 24.4-71.458 49.289-98.571L170.667 0l682.667 0 117.788 235.583c24.889 27.113 42.445 60.843 49.289 98.571L1024 341.339zM227.556 824.895c0 47.127 38.207 85.333 85.333 85.333l398.222 0c47.127 0 85.333-38.207 85.333-85.333L796.444 625.783l113.778 0 0 284.444c0 62.834-50.938 113.772-113.778 113.772L227.556 1023.999c-62.839 0-113.778-50.938-113.778-113.772L113.778 625.783l113.778 0L227.556 824.895z" fill="#ffffff"></path></g></g></svg>