<?xml version="1.0" standalone="no"?><!DOCTYPE svg PUBLIC "-//W3C//DTD SVG 1.1//EN" "http://www.w3.org/Graphics/SVG/1.1/DTD/svg11.dtd"><svg width="200" height="200" viewBox="0 0 200 200" version="1.1" xmlns="http://www.w3.org/2000/svg" xmlns:xlink="http://www.w3.org/1999/xlink"><defs><style type="text/css"><![CDATA[
@font-face { font-family: ifont; src: url(http://at.alicdn.com/t/font_1442373896_4754455.eot?#iefix) format(embedded-opentype), url(http://at.alicdn.com/t/font_1442373896_4754455.woff) format(woff), url(http://at.alicdn.com/t/font_1442373896_4754455.ttf) format(truetype), url(http://at.alicdn.com/t/font_1442373896_4754455.svg#ifont) format(svg); }

]]></style></defs><g class="transform-group"><g transform="scale(0.1953125, 0.1953125)"><path d="M942.061826 350.364693c-70.681806-117.80301-69.560262-120.04712-69.560262-120.04712S628.481921 298.755268 583.043033 64.832588c-141.363611 0-141.363611 0-141.363611 0s-38.992059 234.289024-288.336988 164.924213c-72.083735 120.140241-74.538647 123.891681-74.607208 123.974569 0.090051 0.062422 195.170075 136.356574-0.001023 321.432757 75.730799 124.534318 75.730799 124.534318 75.730799 124.534318s215.511355-92.963275 286.092877 160.997788c143.04695 0 143.04695 0 143.04695 0s44.877093-233.361909 287.215444-164.363442c68.998467-117.80301 70.121034-118.924553 70.121034-118.924553S757.976204 519.674796 942.061826 350.364693zM509.275959 677.69681c-91.089601 0-164.9324-73.842799-164.9324-164.9324s73.842799-164.9324 164.9324-164.9324 164.9324 73.842799 164.9324 164.9324S600.36556 677.69681 509.275959 677.69681zM78.735226 353.73137l-0.001023-0.001023C78.734202 353.730347 78.732156 353.735463 78.735226 353.73137z" fill="#ffffff"></path></g></g></svg>