<?xml version="1.0" standalone="no"?><!DOCTYPE svg PUBLIC "-//W3C//DTD SVG 1.1//EN" "http://www.w3.org/Graphics/SVG/1.1/DTD/svg11.dtd"><svg width="200" height="200" viewBox="0 0 200 200" version="1.1" xmlns="http://www.w3.org/2000/svg" xmlns:xlink="http://www.w3.org/1999/xlink"><defs><style type="text/css"><![CDATA[
@font-face { font-family: ifont; src: url(http://at.alicdn.com/t/font_1442373896_4754455.eot?#iefix) format(embedded-opentype), url(http://at.alicdn.com/t/font_1442373896_4754455.woff) format(woff), url(http://at.alicdn.com/t/font_1442373896_4754455.ttf) format(truetype), url(http://at.alicdn.com/t/font_1442373896_4754455.svg#ifont) format(svg); }

]]></style></defs><g class="transform-group"><g transform="scale(0.1953125, 0.1953125)"><path d="M98.303398 81.522712 64.303027 81.522712 64.303027 942.477288 959.69595 942.477288 959.69595 909.317051 98.909196 907.60199ZM546.437835 115.961058c0-19.035542-15.403828-34.438347-34.438347-34.438347L408.685471 81.522712c-19.001773 0-34.438347 15.402805-34.438347 34.438347l0 723.202213 172.191734 0L546.438858 115.961058zM339.808778 322.590116c0-19.018146-15.403828-34.438347-34.438347-34.438347L202.05539 288.151769c-19.000749 0-34.437323 15.420201-34.437323 34.438347l0 516.573155 172.191734 0L339.809801 322.590116zM753.066893 529.219173c0-19.035542-15.403828-34.438347-34.438347-34.438347L615.314529 494.780827c-19.001773 0-34.438347 15.402805-34.438347 34.438347l0 309.944098 172.191734 0L753.067916 529.219173zM925.258627 701.409884 821.943586 701.409884c-19.000749 0-34.437323 15.403828-34.437323 34.438347l0 103.31504 172.190711 0L959.696973 735.848231C959.69595 716.813712 944.293145 701.409884 925.258627 701.409884z" fill="#ffffff"></path></g></g></svg>