<?xml version="1.0" standalone="no"?><!DOCTYPE svg PUBLIC "-//W3C//DTD SVG 1.1//EN" "http://www.w3.org/Graphics/SVG/1.1/DTD/svg11.dtd"><svg width="200" height="200" viewBox="0 0 200 200" version="1.1" xmlns="http://www.w3.org/2000/svg" xmlns:xlink="http://www.w3.org/1999/xlink"><defs><style type="text/css"><![CDATA[
@font-face { font-family: ifont; src: url(http://at.alicdn.com/t/font_1442373896_4754455.eot?#iefix) format(embedded-opentype), url(http://at.alicdn.com/t/font_1442373896_4754455.woff) format(woff), url(http://at.alicdn.com/t/font_1442373896_4754455.ttf) format(truetype), url(http://at.alicdn.com/t/font_1442373896_4754455.svg#ifont) format(svg); }

]]></style></defs><g class="transform-group"><g transform="scale(0.1953125, 0.1953125)"><path d="M573.60508 433.225065c-26.947729 11.097476-51.650781 25.892845-74.111552 44.384707-22.460772 18.496459-41.878406 39.635527-58.260899 63.414405-16.379894 23.778878-29.063695 49.806032-38.046205 78.076864-8.985908 28.271832-13.475863 57.995479-13.475863 89.175339 0 27.479369 3.568581 53.762349 10.703143 78.869327 7.130565 25.098983 17.040447 48.74675 29.723647 70.941702L408.732863 858.087409c-15.321612 0-33.15592-0.528642-53.504524-1.584925-20.340209-1.055285-41.346967-2.5073-63.011078-4.360044-21.664711-1.84375-43.201709-3.965312-64.600001-6.340701-21.404887-2.376389-40.825121-4.884688-58.261299-7.528895-17.440176-2.64021-32.236144-5.284417-44.389304-7.925626-12.15316-2.639211-19.816564-5.284417-22.986815-7.928624-5.810461-4.225135-10.171104-17.302269-13.077134-39.232201-2.907029-21.931131-1.718835-50.076048 3.565982-84.418564 2.112568-13.214041 6.472612-24.047696 13.077533-32.500964 6.604922-8.452269 14.666056-15.721341 24.179007-21.794224 9.508953-6.080877 20.078387-10.964566 31.705903-14.665057 11.625518-3.700491 23.517055-7.269072 35.670815-10.706741 12.151162-3.431673 23.910788-7.133164 35.267489-11.096477 11.363296-3.960315 21.798621-8.849 31.31217-14.663058 11.096876-6.872341 19.684654-13.608773 25.760934-20.213295 6.07688-6.605521 10.439922-13.078133 13.080132-19.418834 2.642209-6.340701 3.961714-12.94922 3.961714-19.818563 0-6.868743-0.261822-14.525152-0.793862-22.984417-1.056284-12.15376-5.282419-21.796622-12.678804-28.931784-7.399383-7.132564-15.59043-14.399637-24.571341-21.796222-4.228533-3.700491-8.058936-8.853397-11.495606-15.459918-3.434072-6.602923-6.470613-13.341355-9.11482-20.210697-2.642209-7.927025-5.282419-16.115474-7.925027-24.57274-3.700491-1.056284-7.396985-2.906429-11.096876-5.549238-3.17085-2.63961-6.606921-6.340101-10.308011-11.097476-3.696494-4.756175-6.864346-11.625118-9.508553-20.610426-2.642209-8.98291-3.700891-17.171758-3.170251-24.568343 0.528042-7.399383 2.111568-14.008502 4.751778-19.816564 2.119163-5.815057 5.551236-11.363695 10.307412-16.646114 0-20.080385 1.056284-40.163169 3.170251-60.243555 2.112168-16.909935 5.813059-35.140175 11.095477-54.692718 5.289414-19.554142 13.477862-36.994718 24.573339-52.31633 10.571233-14.797967 21.930531-26.817218 34.084291-36.064548 12.155159-9.249129 24.839159-16.513804 38.048603-21.798621 13.211443-5.286416 26.289176-8.850999 39.234399-10.701145 12.947622-1.850146 25.497713-2.776518 37.648474-2.776518 15.328607 0 30.520307 1.718235 45.577498 5.152906 15.064186 3.43667 29.200202 8.056538 42.410046 13.870995 13.212042 5.813059 24.969071 12.419979 35.274084 19.816564 10.300017 7.399383 18.36255 14.795968 24.17461 22.19735 13.738685 16.909935 23.778878 35.533908 30.120578 55.878514 6.339702 20.346605 10.837652 39.765039 13.473865 58.263297 2.643208 21.134071 3.963313 42.539558 3.963313 64.205868 3.700491 2.638211 6.605521 6.074881 8.721087 10.301016 2.111568 3.700491 3.828404 8.457266 5.148509 14.267726 1.324102 5.812659 1.461009 12.945223 0.400728 21.402889-1.06128 11.625118-3.30376 20.740338-6.737432 27.347458-3.440667 6.601924-7.269072 11.75503-11.496206 15.455921-4.757774 4.223536-9.773374 7.132564-15.063787 8.719088-1.055285 3.169851-2.111568 6.606921-3.166853 10.303015l-3.961314 11.099475C576.513108 425.031621 575.189006 428.993934 573.60508 433.225065L573.60508 433.225065zM686.955828 458.585671c34.347712 0 66.715567 6.606921 97.098967 19.816564 30.388197 13.214041 56.811282 31.182258 79.265058 53.904853 22.46377 22.718597 40.297678 49.273393 53.503724 79.656793 13.214041 30.389396 19.817364 62.752254 19.817364 97.104963 0 34.348712-6.599526 66.71157-19.817364 97.09497-13.210044 30.389396-31.039955 56.939195-53.503724 79.661789-22.453776 22.723593-48.876662 40.561299-79.265058 53.502525-30.3834 12.95022-62.751255 19.422831-97.098967 19.422831-34.877153 0-67.510028-6.476609-97.897426-19.422831-30.379403-12.945223-56.802288-30.779132-79.264059-53.502525-22.453776-22.722594-40.290483-49.272393-53.501526-79.661789-13.212042-30.3834-19.816564-62.746258-19.816564-97.09497 0-34.352709 6.604522-66.715567 19.816564-97.104963 13.211043-30.387397 31.04775-56.933199 53.501526-79.656793 22.461771-22.722594 48.884656-40.690812 79.264059-53.904853C619.4458 465.19479 652.078675 458.585671 686.955828 458.585671L686.955828 458.585671zM832.804543 659.918167c3.168852-10.56084 1.715837-20.2063-4.356047-28.927387-6.080877-8.721087-14.138414-14.930877-24.17461-18.631368-10.041192-3.695494-20.082384-3.958316-30.124576-0.791463-10.041192 3.172849-17.43318 11.361297-22.193953 24.571341-2.641209 8.984908-5.149509 17.310264-7.533892 24.975067-2.372392 7.656809-4.756775 15.718343-7.128167 24.175609-2.376389 8.457266-5.284417 17.570087-8.721087 27.343461-3.432673 9.777371-7.798712 21.006757-13.077134 33.68716-5.290413 13.738685-12.818309 20.215294-22.591683 19.422831-9.777371-0.79646-17.306266-6.476609-22.59568-17.046443-5.808062-10.568834-11.22439-21.925135-16.244986-34.078895-5.020596-12.158756-9.905284-24.047696-14.666056-35.667617-4.761772-11.631114-8.984908-22.200948-12.686399-31.713498-3.691497-9.509553-6.863347-17.170358-9.508553-22.986415-4.229133-8.457266-11.229386-13.210044-21.006757-14.267327-9.773374-1.059282-19.290921 0.392734-28.531656 4.357046-9.248729 3.965312-16.914532 10.173103-22.987415 18.630369-6.075881 8.457266-7.004251 17.698001-2.775118 27.740192 3.700491 10.572832 7.924627 22.46277 12.681402 35.671615 4.756775 13.214041 9.780369 26.688905 15.061788 40.424592 5.279421 13.738685 10.301016 27.21255 15.056791 40.430588 4.760772 13.209044 8.986907 24.571341 12.682401 34.079694 7.929624 20.082384 19.950474 35.144172 36.064548 45.185164 16.126067 10.037195 33.031605 15.321612 50.734402 15.850254 17.702997 0.528642 34.612333-3.43667 50.734402-11.888939 16.113075-8.457266 27.872103-21.139667 35.271886-38.050202 5.808062-13.736687 11.758028-28.138922 17.829911-43.196713 6.080877-15.056791 11.888939-29.727845 17.442174-43.992973 5.54524-14.266327 10.701744-28.012008 15.453523-41.222051C825.667581 680.793014 829.632893 669.431717 832.804543 659.918167L832.804543 659.918167z" fill="#ffffff"></path></g></g></svg>